<svg id="slogan" xmlns="http://www.w3.org/2000/svg" viewBox="0 0 1329 357"><defs><style>.cls-1{fill:#51aec7;}.cls-2{fill:#21416e;}.cls-3{fill:#ccc;}</style></defs><title>RFACIL LOGOTIPO</title><path class="cls-1" d="M381.11,103.66a5.76,5.76,0,0,1,5.2-2.54H411V59H379.75c-15.49,0-27.2,4.16-34.8,12.36s-11.38,20.43-11.38,36.51v21H315.08v39.6h18.49V308.68h45.48V168.51H411v-39.6H379.05V111.74A14.14,14.14,0,0,1,381.11,103.66Z"/><path class="cls-2" d="M304.76,139.84a48.65,48.65,0,0,0-16.65-10.34,61.71,61.71,0,0,0-21.64-3.62A48.16,48.16,0,0,0,238.08,135,59,59,0,0,0,226,146.56V126.07H178.8v182.4H226V201.1c0-9.93,2.57-17.73,7.63-23.2s12.25-8.16,21.53-8.16a35.37,35.37,0,0,1,12.69,2.1,23.8,23.8,0,0,1,8.45,5.46l2.75,2.8,27.78-38.25Z"/><path class="cls-2" d="M535.38,69.31l-45.62,56.63a100.2,100.2,0,0,0-34.09,6.78c-11.21,4.47-20.47,10.8-27.5,18.8l-2.24,2.55,30.43,25.65,2.1-1.53A59.29,59.29,0,0,1,474.82,170a61,61,0,0,1,19-3.07c9.81,0,17.44,2.48,22.69,7.37s7.82,11.83,7.82,20.79v4.75H481.74c-20.76,0-36.63,4.57-47.18,13.6s-16.09,22.9-16.09,40.91c0,18.89,5.34,33.24,15.88,42.64S460.57,311,481.24,311A86.38,86.38,0,0,0,504,308.13a52,52,0,0,0,18.18-8.8q1.14-.88,2.19-1.86v11H566.9v-115c0-14.1-2.93-26.35-8.69-36.42a57,57,0,0,0-24.29-22.79L568,96.74Zm-11,189.2c0,4.85-2.54,8.35-7.77,10.71-5.86,2.64-15.09,4-27.45,4-9.85,0-17.21-1.62-21.9-4.83-4.44-3-6.59-7.64-6.59-14.06,0-6.11,1.69-10.64,5-13.46s8.93-4.42,16.22-4.42h42.46Z"/><path class="cls-2" d="M637.85,179.16c6.3-6.25,15.42-9.42,27.09-9.42a47.36,47.36,0,0,1,18.34,3.67,45.08,45.08,0,0,1,14.84,10.05l2.27,2.32,30.91-29-1.79-2.38a63.06,63.06,0,0,0-16.77-15.33,82.15,82.15,0,0,0-23-9.83,105.41,105.41,0,0,0-27-3.37c-16.63,0-31.1,3.16-43,9.39a64.17,64.17,0,0,0-27.55,27.64c-6.23,12-9.39,26.5-9.39,43.24v23.74c0,17,3.16,31.68,9.38,43.73a64.5,64.5,0,0,0,27.55,27.9c11.89,6.29,26.36,9.48,43,9.48a107.46,107.46,0,0,0,26.85-3.28,81.76,81.76,0,0,0,23-9.67,65.27,65.27,0,0,0,16.91-15l1.81-2.32-30.92-30.92L698,252.38a44.19,44.19,0,0,1-33.08,14.75c-11.78,0-20.91-3.21-27.15-9.56s-9.42-15.67-9.42-27.68V206.15C628.37,194.48,631.56,185.4,637.85,179.16Z"/><rect class="cls-2" x="745.18" y="126.07" width="45.38" height="183.07"/><path class="cls-2" d="M868.69,265.78c-3.18,0-5.52-.85-7.14-2.6h0c-1.65-1.78-2.49-4.48-2.49-8V59H813.51V260.69c0,15.32,4,27.43,11.9,36s19.17,13,33.35,13H883.3V265.78Z"/><path class="cls-2" d="M1120.44,257.38H1125l1.78,6.88,1.76-6.88h4.59v11.31h-2.86v-8.62l-2.21,8.62h-2.58l-2.21-8.62v8.62h-2.86Z"/><path class="cls-2" d="M1135.44,268.69V257.38h5.82a8.65,8.65,0,0,1,2.48.28,2.67,2.67,0,0,1,1.38,1,3.11,3.11,0,0,1,.52,1.83,3,3,0,0,1-1.5,2.73,4.31,4.31,0,0,1-1.23.45,3.41,3.41,0,0,1,.91.42,3.27,3.27,0,0,1,.56.59,5.22,5.22,0,0,1,.49.7l1.69,3.28h-4l-1.87-3.46a2.62,2.62,0,0,0-.63-.87,1.5,1.5,0,0,0-.85-.26H1139v4.59ZM1139,262h1.47a5.46,5.46,0,0,0,.93-.15.9.9,0,0,0,.56-.35,1,1,0,0,0,.22-.66,1,1,0,0,0-.35-.84,2,2,0,0,0-1.3-.3H1139Z"/><path class="cls-2" d="M1133.5,243.33A19.71,19.71,0,1,0,1153.2,263,19.73,19.73,0,0,0,1133.5,243.33Zm0,36A16.35,16.35,0,1,1,1149.84,263,16.36,16.36,0,0,1,1133.5,279.38Z"/><path class="cls-1" d="M1063.47,137.64H961.59a22,22,0,0,0-4.89.56A21.66,21.66,0,0,0,940,159.25V261.13a21.63,21.63,0,0,0,21.61,21.61h101.88a21.63,21.63,0,0,0,21.61-21.61V159.25A21.64,21.64,0,0,0,1063.47,137.64Z"/><path class="cls-2" d="M1127.68,110.9a10.08,10.08,0,0,0-4-2.34,30.65,30.65,0,0,0-12-1.24,34.55,34.55,0,0,0-19.29,7.09,126.49,126.49,0,0,0-16,15.05c-17.82,19.53-25.1,30.7-28,35.24-14.12,22-27.87,58.64-30.79,61.08-.45.37-25.13-33.33-25.78-34.44,0,0-12.87,6.93-22.3,12.56v0l2.77,3.51a399.2,399.2,0,0,1,24.38,33.75c.12.2.25.4.38.6A24,24,0,0,0,1016,253a21,21,0,0,0,20.12-12q1-2.08,2-4.16a496,496,0,0,1,42.33-69.1,303.6,303.6,0,0,1,23.08-28.29c7-7.55,14.34-14.71,22.76-20.66a6.86,6.86,0,0,0,2.18-2.59A4.7,4.7,0,0,0,1127.68,110.9Z"/><ellipse class="cls-3" cx="1012.29" cy="306.69" rx="82.34" ry="3.98"/></svg>