<svg id="slogan" xmlns="http://www.w3.org/2000/svg" viewBox="0 0 1329 513"><defs><style>.cls-1{fill:#51aec7;}.cls-2{fill:#21416e;}.cls-3{fill:#ccc;}</style></defs><title>LOGOTIPO RFACIL-SLOGAN</title><path class="cls-1" d="M381.11,103.66a5.76,5.76,0,0,1,5.2-2.54H411V59H379.75c-15.49,0-27.2,4.16-34.8,12.36s-11.38,20.43-11.38,36.51v21H315.08v39.6h18.49V308.68h45.48V168.51H411v-39.6H379.05V111.74A14.14,14.14,0,0,1,381.11,103.66Z"/><path class="cls-2" d="M304.76,139.84a48.65,48.65,0,0,0-16.65-10.34,61.71,61.71,0,0,0-21.64-3.62A48.16,48.16,0,0,0,238.08,135,59,59,0,0,0,226,146.56V126.07H178.8v182.4H226V201.1c0-9.93,2.57-17.73,7.63-23.2s12.25-8.16,21.53-8.16a35.37,35.37,0,0,1,12.69,2.1,23.8,23.8,0,0,1,8.45,5.46l2.75,2.8,27.78-38.25Z"/><path class="cls-2" d="M535.38,69.31l-45.62,56.63a100.2,100.2,0,0,0-34.09,6.78c-11.21,4.47-20.47,10.8-27.5,18.8l-2.24,2.55,30.43,25.65,2.1-1.53A59.29,59.29,0,0,1,474.82,170a61,61,0,0,1,19-3.07c9.81,0,17.44,2.48,22.69,7.37s7.82,11.83,7.82,20.79v4.75H481.74c-20.76,0-36.63,4.57-47.18,13.6s-16.09,22.9-16.09,40.91c0,18.89,5.34,33.24,15.88,42.64S460.57,311,481.24,311A86.38,86.38,0,0,0,504,308.13a52,52,0,0,0,18.18-8.8q1.14-.88,2.19-1.86v11H566.9v-115c0-14.1-2.93-26.35-8.69-36.42a57,57,0,0,0-24.29-22.79L568,96.74Zm-11,189.2c0,4.85-2.54,8.35-7.77,10.71-5.86,2.64-15.09,4-27.45,4-9.85,0-17.21-1.62-21.9-4.83-4.44-3-6.59-7.64-6.59-14.06,0-6.11,1.69-10.64,5-13.46s8.93-4.42,16.22-4.42h42.46Z"/><path class="cls-2" d="M637.85,179.16c6.3-6.25,15.42-9.42,27.09-9.42a47.36,47.36,0,0,1,18.34,3.67,45.08,45.08,0,0,1,14.84,10.05l2.27,2.32,30.91-29-1.79-2.38a63.06,63.06,0,0,0-16.77-15.33,82.15,82.15,0,0,0-23-9.83,105.41,105.41,0,0,0-27-3.37c-16.63,0-31.1,3.16-43,9.39a64.17,64.17,0,0,0-27.55,27.64c-6.23,12-9.39,26.5-9.39,43.24v23.74c0,17,3.16,31.68,9.38,43.73a64.5,64.5,0,0,0,27.55,27.9c11.89,6.29,26.36,9.48,43,9.48a107.46,107.46,0,0,0,26.85-3.28,81.76,81.76,0,0,0,23-9.67,65.27,65.27,0,0,0,16.91-15l1.81-2.32-30.92-30.92L698,252.38a44.19,44.19,0,0,1-33.08,14.75c-11.78,0-20.91-3.21-27.15-9.56s-9.42-15.67-9.42-27.68V206.15C628.37,194.48,631.56,185.4,637.85,179.16Z"/><rect class="cls-2" x="745.18" y="126.07" width="45.38" height="183.07"/><path class="cls-2" d="M868.69,265.78c-3.18,0-5.52-.85-7.14-2.6h0c-1.65-1.78-2.49-4.48-2.49-8V59H813.51V260.69c0,15.32,4,27.43,11.9,36s19.17,13,33.35,13H883.3V265.78Z"/><path class="cls-2" d="M1120.44,257.38H1125l1.78,6.88,1.76-6.88h4.59v11.31h-2.86v-8.62l-2.21,8.62h-2.58l-2.21-8.62v8.62h-2.86Z"/><path class="cls-2" d="M1135.44,268.69V257.38h5.82a8.65,8.65,0,0,1,2.48.28,2.67,2.67,0,0,1,1.38,1,3.11,3.11,0,0,1,.52,1.83,3,3,0,0,1-1.5,2.73,4.31,4.31,0,0,1-1.23.45,3.41,3.41,0,0,1,.91.42,3.27,3.27,0,0,1,.56.59,5.22,5.22,0,0,1,.49.7l1.69,3.28h-4l-1.87-3.46a2.62,2.62,0,0,0-.63-.87,1.5,1.5,0,0,0-.85-.26H1139v4.59ZM1139,262h1.47a5.46,5.46,0,0,0,.93-.15.9.9,0,0,0,.56-.35,1,1,0,0,0,.22-.66,1,1,0,0,0-.35-.84,2,2,0,0,0-1.3-.3H1139Z"/><path class="cls-2" d="M1133.5,243.33A19.71,19.71,0,1,0,1153.2,263,19.73,19.73,0,0,0,1133.5,243.33Zm0,36A16.35,16.35,0,1,1,1149.84,263,16.36,16.36,0,0,1,1133.5,279.38Z"/><path class="cls-1" d="M1063.47,137.64H961.59a22,22,0,0,0-4.89.56A21.66,21.66,0,0,0,940,159.25V261.13a21.63,21.63,0,0,0,21.61,21.61h101.88a21.63,21.63,0,0,0,21.61-21.61V159.25A21.64,21.64,0,0,0,1063.47,137.64Z"/><path class="cls-2" d="M1127.68,110.9a10.08,10.08,0,0,0-4-2.34,30.65,30.65,0,0,0-12-1.24,34.55,34.55,0,0,0-19.29,7.09,126.49,126.49,0,0,0-16,15.05c-17.82,19.53-25.1,30.7-28,35.24-14.12,22-27.87,58.64-30.79,61.08-.45.37-25.13-33.33-25.78-34.44,0,0-12.87,6.93-22.3,12.56v0l2.77,3.51a399.2,399.2,0,0,1,24.38,33.75c.12.2.25.4.38.6A24,24,0,0,0,1016,253a21,21,0,0,0,20.12-12q1-2.08,2-4.16a496,496,0,0,1,42.33-69.1,303.6,303.6,0,0,1,23.08-28.29c7-7.55,14.34-14.71,22.76-20.66a6.86,6.86,0,0,0,2.18-2.59A4.7,4.7,0,0,0,1127.68,110.9Z"/><ellipse class="cls-3" cx="1012.29" cy="306.69" rx="82.34" ry="3.98"/><path class="cls-2" d="M104.13,403.47A19.64,19.64,0,0,0,97,400.56l-6.18-1.41a39.15,39.15,0,0,1-7.8-2.33,4.28,4.28,0,0,1-2.31-4.06,6.17,6.17,0,0,1,2.08-4.61c1.38-1.32,3.75-2,7-2,4.09,0,7,1.06,8.66,3.15a10.4,10.4,0,0,1,1.76,5.06l.09.67h7v-.77c0-5.14-1.74-8.95-5.18-11.32A21,21,0,0,0,90,379.46c-5.19,0-9.28,1.35-12.16,4a13.53,13.53,0,0,0-4.35,10.31A10,10,0,0,0,78,402.66c1.71,1.12,4.49,2.11,8.52,3l6,1.35a22.14,22.14,0,0,1,6.87,2.49c1.29.88,1.91,2.35,1.91,4.5,0,2.86-1.57,4.8-4.82,5.93a17.79,17.79,0,0,1-5.86.91c-4.71,0-8-1.36-9.83-4a11.44,11.44,0,0,1-1.64-5.71l0-.72H72v.76c-.06,5,1.56,9,4.81,11.88s7.73,4.4,13.38,4.4A24.71,24.71,0,0,0,103,424.18c3.78-2.24,5.7-6,5.7-11.12C108.65,408.9,107.13,405.68,104.13,403.47Z"/><path class="cls-2" d="M135.06,379.37c-7.67,0-13.55,2.85-17.48,8.48A26.88,26.88,0,0,0,113,403.58c0,6.75,1.8,12.42,5.38,16.88,4,4.63,9.58,7,16.56,7,7.47,0,13.31-2.69,17.37-8,3.42-4.48,5.16-10.15,5.16-16.87,0-6.21-1.52-11.4-4.53-15.42C149.07,382,143.05,379.37,135.06,379.37Zm.6,41.19c-5.26,0-9.09-1.58-11.39-4.71A19.52,19.52,0,0,1,120.71,404c0-5.87,1.39-10.35,4.12-13.31a13.78,13.78,0,0,1,10.59-4.45c4.5,0,7.94,1.46,10.52,4.47s3.88,7,3.88,12a23.39,23.39,0,0,1-3.41,12.59C144.19,418.83,140.68,420.56,135.66,420.56Z"/><polygon class="cls-2" points="171.16 380.57 163.66 380.57 163.66 426.15 193.47 426.15 193.47 419.37 171.16 419.37 171.16 380.57"/><path class="cls-2" d="M227.47,408.56a15.82,15.82,0,0,1-1.38,7.23c-1.69,3.21-4.84,4.77-9.63,4.77-4,0-6.68-1.44-8.33-4.4a15.35,15.35,0,0,1-1.7-7.6v-28h-7.59v25.5c0,5.51.76,9.84,2.27,12.85,2.79,5.57,8.11,8.4,15.83,8.4s13.05-2.83,15.86-8.4c1.5-3,2.27-7.34,2.27-12.85v-25.5h-7.6Z"/><path class="cls-2" d="M274.67,409a18.79,18.79,0,0,1-2.61,6.74c-2.17,3.19-5.25,4.73-9.41,4.73-4.57,0-7.89-1.47-10.17-4.5S249,408.88,249,403.91c0-6.07,1.28-10.62,3.81-13.51a12.47,12.47,0,0,1,9.94-4.31c3.35,0,6,.78,7.79,2.31a11.41,11.41,0,0,1,3.69,6.33l.14.6h7.27l-.08-.84a16.39,16.39,0,0,0-5.36-10.5c-3.21-3.07-7.76-4.62-13.51-4.62-6.75,0-12.12,2.37-16,7.05-3.54,4.28-5.33,9.82-5.33,16.47,0,8.75,2.4,15.32,7.12,19.55a19.5,19.5,0,0,0,13.41,4.85c6.13,0,11.08-2,14.71-5.91A20.75,20.75,0,0,0,282,409.27l.09-.85h-7.3Z"/><rect class="cls-2" x="289.69" y="380.57" width="7.56" height="45.58"/><path class="cls-2" d="M325.79,379.37c-7.67,0-13.55,2.85-17.48,8.48a26.88,26.88,0,0,0-4.58,15.73c0,6.75,1.8,12.42,5.38,16.88,4,4.63,9.58,7,16.56,7,7.47,0,13.31-2.69,17.37-8,3.42-4.48,5.16-10.15,5.16-16.87,0-6.21-1.52-11.4-4.53-15.42C339.8,382,333.78,379.37,325.79,379.37Zm.6,41.19c-5.26,0-9.09-1.58-11.39-4.71A19.52,19.52,0,0,1,311.44,404c0-5.87,1.39-10.35,4.12-13.31a13.78,13.78,0,0,1,10.59-4.45c4.5,0,7.94,1.46,10.52,4.47s3.88,7,3.88,12a23.39,23.39,0,0,1-3.41,12.59C334.92,418.83,331.41,420.56,326.39,420.56Z"/><polygon class="cls-2" points="383.68 414.33 362.63 380.57 354.39 380.57 354.39 426.15 361.62 426.15 361.62 392.38 383 426.15 390.88 426.15 390.88 380.57 383.68 380.57 383.68 414.33"/><polygon class="cls-2" points="407.27 405.97 431.58 405.97 431.58 399.34 407.27 399.34 407.27 387.5 433.56 387.5 433.56 380.57 399.92 380.57 399.92 426.15 434.01 426.15 434.01 419.37 407.27 419.37 407.27 405.97"/><path class="cls-2" d="M471.34,403.47a19.69,19.69,0,0,0-7.18-2.91L458,399.15a39.32,39.32,0,0,1-7.81-2.33,4.28,4.28,0,0,1-2.3-4.06,6.19,6.19,0,0,1,2.07-4.61c1.38-1.32,3.76-2,7.05-2,4.09,0,7,1.06,8.66,3.15a10.4,10.4,0,0,1,1.77,5.06l.08.67h7.05v-.77c0-5.14-1.74-8.95-5.17-11.32a21,21,0,0,0-12.21-3.48c-5.19,0-9.28,1.35-12.15,4a13.49,13.49,0,0,0-4.35,10.31,10,10,0,0,0,4.54,8.88c1.71,1.12,4.5,2.11,8.53,3l6,1.35a22.32,22.32,0,0,1,6.88,2.49c1.28.88,1.91,2.35,1.91,4.5,0,2.86-1.58,4.8-4.82,5.93a17.81,17.81,0,0,1-5.87.91c-4.7,0-8-1.36-9.82-4a11.34,11.34,0,0,1-1.64-5.71l0-.72h-7.09v.76c-.07,5,1.55,9,4.81,11.88s7.73,4.4,13.37,4.4a24.69,24.69,0,0,0,12.76-3.26c3.78-2.24,5.7-6,5.7-11.12C475.85,408.9,474.33,405.68,471.34,403.47Z"/><polygon class="cls-2" points="508.08 405.97 532.4 405.97 532.4 399.34 508.08 399.34 508.08 387.5 534.38 387.5 534.38 380.57 500.73 380.57 500.73 426.15 534.83 426.15 534.83 419.37 508.08 419.37 508.08 405.97"/><polygon class="cls-2" points="571.02 414.33 549.97 380.57 541.73 380.57 541.73 426.15 548.96 426.15 548.96 392.38 570.35 426.15 578.22 426.15 578.22 380.57 571.02 380.57 571.02 414.33"/><polygon class="cls-2" points="599.6 387.35 614.44 387.35 614.44 426.15 622.03 426.15 622.03 387.35 636.87 387.35 636.87 380.57 599.6 380.57 599.6 387.35"/><polygon class="cls-2" points="649.33 405.97 673.64 405.97 673.64 399.34 649.33 399.34 649.33 387.5 675.62 387.5 675.62 380.57 641.97 380.57 641.97 426.15 676.07 426.15 676.07 419.37 649.33 419.37 649.33 405.97"/><path class="cls-2" d="M714.26,409a18.53,18.53,0,0,1-2.61,6.74c-2.16,3.19-5.24,4.73-9.41,4.73-4.56,0-7.89-1.47-10.16-4.5s-3.46-7.12-3.46-12.09c0-6.07,1.28-10.62,3.81-13.51a12.46,12.46,0,0,1,9.93-4.31c3.36,0,6,.78,7.8,2.31a11.41,11.41,0,0,1,3.69,6.33l.13.6h7.27l-.08-.84a16.3,16.3,0,0,0-5.36-10.5c-3.21-3.07-7.75-4.62-13.51-4.62-6.74,0-12.12,2.37-16,7.05-3.54,4.28-5.33,9.82-5.33,16.47,0,8.75,2.39,15.32,7.12,19.55a19.47,19.47,0,0,0,13.4,4.85c6.13,0,11.09-2,14.71-5.91a20.69,20.69,0,0,0,5.36-12.11l.1-.85h-7.3Z"/><polygon class="cls-2" points="757.23 414.33 736.17 380.57 727.93 380.57 727.93 426.15 735.16 426.15 735.16 392.38 756.55 426.15 764.43 426.15 764.43 380.57 757.23 380.57 757.23 414.33"/><path class="cls-2" d="M792.67,379.37c-7.67,0-13.55,2.85-17.48,8.48a26.88,26.88,0,0,0-4.58,15.73c0,6.75,1.8,12.42,5.38,16.88,4,4.63,9.58,7,16.56,7,7.47,0,13.31-2.69,17.37-8,3.43-4.47,5.16-10.15,5.16-16.87,0-6.22-1.52-11.4-4.53-15.42C806.68,382,800.66,379.37,792.67,379.37Zm.6,41.19c-5.26,0-9.09-1.58-11.39-4.71A19.52,19.52,0,0,1,778.32,404c0-5.87,1.39-10.35,4.12-13.31A13.78,13.78,0,0,1,793,386.21c4.5,0,7.94,1.46,10.52,4.47s3.88,7,3.88,12a23.47,23.47,0,0,1-3.4,12.59C801.8,418.83,798.29,420.56,793.27,420.56Z"/><polygon class="cls-2" points="828.77 380.57 821.27 380.57 821.27 426.15 851.08 426.15 851.08 419.37 828.77 419.37 828.77 380.57"/><path class="cls-2" d="M875.81,379.37c-7.67,0-13.55,2.85-17.48,8.48a26.88,26.88,0,0,0-4.58,15.73c0,6.75,1.8,12.42,5.38,16.88,4,4.63,9.58,7,16.56,7,7.47,0,13.31-2.69,17.37-8,3.43-4.47,5.16-10.15,5.16-16.87,0-6.22-1.52-11.4-4.53-15.42C889.82,382,883.8,379.37,875.81,379.37Zm.6,41.19c-5.26,0-9.09-1.58-11.39-4.71A19.52,19.52,0,0,1,861.46,404c0-5.87,1.39-10.35,4.12-13.31a13.78,13.78,0,0,1,10.59-4.45c4.5,0,7.94,1.46,10.52,4.47s3.88,7,3.88,12a23.47,23.47,0,0,1-3.4,12.59C884.94,418.83,881.43,420.56,876.41,420.56Z"/><path class="cls-2" d="M923.6,407.53h13.77c-.18,4.51-1.43,7.82-3.72,9.85a13.71,13.71,0,0,1-9.38,3.27c-5,0-8.44-1.5-10.61-4.6s-3.31-7.3-3.31-12.35c0-5.83,1.34-10.25,4-13.15a12.55,12.55,0,0,1,9.73-4.34,14.69,14.69,0,0,1,8.13,2.08,10,10,0,0,1,4.14,6.56l.13.6h7.43l-.15-.9c-1-6-3.86-10.23-8.44-12.63a23.45,23.45,0,0,0-11.09-2.49,19.87,19.87,0,0,0-15.31,6.48c-4.12,4.49-6.2,10.58-6.2,18.12s2.14,13.62,6.4,18a20.27,20.27,0,0,0,14,5.27A20.88,20.88,0,0,0,933.43,425a20.33,20.33,0,0,0,4.6-3.74l1.24,4.89h5.2v-25.1H923.6Z"/><polygon class="cls-2" points="950.69 378.75 956.55 378.75 965.98 368.55 957.15 368.55 950.69 378.75"/><rect class="cls-2" x="954.13" y="380.57" width="7.56" height="45.58"/><path class="cls-2" d="M983.5,380.57l-17.16,45.58h7.76l4.77-13.2H995.2l4.47,13.2h8.18l-16.54-45.58Zm9.26,26H981.14l6-16.39Z"/><path class="cls-2" d="M1045.22,380.57h-18.61v45.58h18.55c7.85,0,13.46-3.52,16.68-10.46a30.56,30.56,0,0,0,2.71-13c0-6.2-1.56-11.37-4.63-15.37C1056.44,382.84,1051.5,380.57,1045.22,380.57Zm-11.07,6.66H1044c4.6,0,7.82,1.38,9.86,4.21s3.11,7,3.11,12.26a25.38,25.38,0,0,1-.44,4.48,17.89,17.89,0,0,1-2.43,6.55,10.27,10.27,0,0,1-5.3,4.19,15.54,15.54,0,0,1-4.74.6h-9.87Z"/><rect class="cls-2" x="1072.65" y="380.57" width="7.56" height="45.58"/><path class="cls-2" d="M1108.16,407.53h13.78c-.18,4.51-1.43,7.82-3.73,9.85a13.66,13.66,0,0,1-9.37,3.27c-5,0-8.45-1.5-10.61-4.6s-3.31-7.3-3.31-12.35c0-5.83,1.34-10.25,4-13.15a12.54,12.54,0,0,1,9.73-4.34,14.71,14.71,0,0,1,8.13,2.08,10,10,0,0,1,4.13,6.56l.14.6h7.43l-.15-.9c-1-6-3.86-10.23-8.44-12.63a23.45,23.45,0,0,0-11.09-2.49,19.86,19.86,0,0,0-15.31,6.48c-4.12,4.49-6.2,10.58-6.2,18.12s2.14,13.62,6.4,18a20.25,20.25,0,0,0,14,5.27A20.9,20.9,0,0,0,1118,425a20.09,20.09,0,0,0,4.59-3.74l1.25,4.89h5.2v-25.1h-20.88Z"/><rect class="cls-2" x="1138.7" y="380.57" width="7.56" height="45.58"/><polygon class="cls-2" points="1188.61 380.57 1151.34 380.57 1151.34 387.35 1166.18 387.35 1166.18 426.15 1173.77 426.15 1173.77 387.35 1188.61 387.35 1188.61 380.57"/><path class="cls-2" d="M1201.66,380.57l-17.16,45.58h7.77L1197,413h16.33l4.47,13.2H1226l-16.53-45.58Zm9.26,26H1199.3l6-16.39Z"/><polygon class="cls-2" points="1237.69 419.37 1237.69 380.57 1230.19 380.57 1230.19 426.15 1260 426.15 1260 419.37 1237.69 419.37"/></svg>